<?xml version="1.0" encoding="UTF-8" standalone="no"?>
<svg
   xmlns:dc="http://purl.org/dc/elements/1.1/"
   xmlns:cc="http://creativecommons.org/ns#"
   xmlns:rdf="http://www.w3.org/1999/02/22-rdf-syntax-ns#"
   xmlns:svg="http://www.w3.org/2000/svg"
   xmlns="http://www.w3.org/2000/svg"
   id="svg1576"
   version="1.1"
   viewBox="0 0 209.97711 232.48924"
   height="232.48924mm"
   width="209.97711mm">
  <defs
     id="defs1570" />
  <metadata
     id="metadata1573">
    <rdf:RDF>
      <cc:Work
         rdf:about="">
        <dc:format>image/svg+xml</dc:format>
        <dc:type
           rdf:resource="http://purl.org/dc/dcmitype/StillImage" />
        <dc:title></dc:title>
      </cc:Work>
    </rdf:RDF>
  </metadata>
  <g
     transform="translate(-0.06472421,0.12359039)"
     id="layer1">
    <path
       id="path941"
       d="M 65.767039,-0.10216401 C 36.976117,-0.87349254 8.3455175,19.256908 2.2089343,47.919914 -4.1319427,73.632125 7.5946214,102.71292 30.695402,116.00532 5.8675618,129.69855 -5.830739,161.52966 2.9827789,188.25034 c 8.2460211,28.6846 38.9941511,47.3176 68.2285431,43.65764 16.282532,-2.02112 32.379908,-9.69747 43.144468,-22.18608 4.86752,-7.4689 -5.09584,-18.13754 -12.32618,-12.85325 -9.570259,6.99442 -19.448308,14.66788 -31.690275,15.66165 -24.179497,3.37823 -48.448288,-16.6316 -48.877725,-41.22126 -1.987346,-23.57456 18.388537,-45.4827 41.923316,-45.80141 17.742555,-1.24387 33.102632,9.94056 43.762784,23.07919 12.11999,14.32529 28.99099,26.11743 48.43551,26.03466 19.41833,0.67689 39.74534,-7.04677 52.3851,-22.01396 5.05773,-8.24357 -5.72645,-18.34342 -13.71129,-13.05308 -14.3469,16.24895 -41.21917,22.71014 -59.54687,9.48162 -12.59137,-10.39228 -20.96505,-25.57739 -35.859263,-33.24879 16.713383,-8.4085 24.605823,-26.959658 40.423823,-36.415283 18.58811,-9.355267 42.20252,-3.01326 55.75569,12.191221 7.98481,5.290271 18.76899,-4.809529 13.71128,-13.053083 C 187.70343,53.821357 145.53235,48.00908 120.73456,70.510241 107.49797,81.942944 97.946844,98.687985 80.027365,103.56817 56.917036,111.95227 28.672779,97.303532 23.207118,73.110394 16.706409,50.500245 31.874246,24.785341 54.940482,19.849053 c 16.856384,-4.590071 34.132437,3.358069 46.518348,14.98637 6.58423,6.181492 18.0091,-3.253061 14.48472,-11.522955 C 110.62113,14.429301 100.55153,9.2291793 91.381338,5.0108849 83.272848,1.7036456 74.528548,-0.10006227 65.767039,-0.10216401 Z"
       style="font-style:normal;font-variant:normal;font-weight:normal;font-stretch:normal;font-size:880.38043213px;line-height:125%;font-family:Montserrat;-inkscape-font-specification:Montserrat;letter-spacing:0px;word-spacing:0px;fill:#000000;fill-opacity:1;stroke:none;stroke-width:0.70673996px;stroke-linecap:butt;stroke-linejoin:miter;stroke-opacity:1" />
  </g>
</svg>
